<svg xmlns="http://www.w3.org/2000/svg" viewBox="0 0 800 450" fill="none">
  <defs>
    <linearGradient id="bg10" x1="0%" y1="0%" x2="100%" y2="100%">
      <stop offset="0%" style="stop-color:#fff7ed"/>
      <stop offset="100%" style="stop-color:#fed7aa"/>
    </linearGradient>
  </defs>
  <rect width="800" height="450" fill="url(#bg10)"/>
  <!-- Store Front -->
  <rect x="200" y="150" width="400" height="250" fill="white" stroke="#e5e7eb" stroke-width="2"/>
  <rect x="200" y="150" width="400" height="50" fill="#f97316"/>
  <text x="400" y="185" text-anchor="middle" font-family="system-ui" font-size="24" font-weight="bold" fill="white">SHOP</text>
  <!-- Product Grid -->
  <rect x="230" y="220" width="100" height="120" rx="8" fill="#f3f4f6" stroke="#e5e7eb"/>
  <rect x="240" y="230" width="80" height="60" rx="4" fill="#8b5cf6" opacity="0.3"/>
  <rect x="240" y="300" width="60" height="12" rx="2" fill="#1f1f23"/>
  <rect x="240" y="318" width="40" height="10" rx="2" fill="#f97316"/>

  <rect x="350" y="220" width="100" height="120" rx="8" fill="#f3f4f6" stroke="#e5e7eb"/>
  <rect x="360" y="230" width="80" height="60" rx="4" fill="#10b981" opacity="0.3"/>
  <rect x="360" y="300" width="70" height="12" rx="2" fill="#1f1f23"/>
  <rect x="360" y="318" width="45" height="10" rx="2" fill="#f97316"/>

  <rect x="470" y="220" width="100" height="120" rx="8" fill="#f3f4f6" stroke="#e5e7eb"/>
  <rect x="480" y="230" width="80" height="60" rx="4" fill="#3b82f6" opacity="0.3"/>
  <rect x="480" y="300" width="55" height="12" rx="2" fill="#1f1f23"/>
  <rect x="480" y="318" width="50" height="10" rx="2" fill="#f97316"/>
  <!-- Shopping Bag -->
  <g transform="translate(620, 80)">
    <rect x="0" y="30" width="80" height="70" rx="4" fill="#f97316"/>
    <path d="M20 30 L20 15 Q20 0 40 0 Q60 0 60 15 L60 30" fill="none" stroke="#f97316" stroke-width="6"/>
    <rect x="15" y="50" width="50" height="6" rx="3" fill="white" opacity="0.5"/>
    <rect x="25" y="65" width="30" height="6" rx="3" fill="white" opacity="0.5"/>
  </g>
  <!-- Credit Card -->
  <g transform="translate(100, 300)">
    <rect x="0" y="0" width="80" height="50" rx="6" fill="#8b5cf6"/>
    <rect x="10" y="15" width="30" height="8" rx="2" fill="#fbbf24"/>
    <rect x="10" y="32" width="60" height="6" rx="1" fill="white" opacity="0.5"/>
  </g>
</svg>