<svg xmlns="http://www.w3.org/2000/svg" viewBox="0 0 800 450" fill="none">
  <defs>
    <linearGradient id="bg7" x1="0%" y1="0%" x2="100%" y2="100%">
      <stop offset="0%" style="stop-color:#ecfeff"/>
      <stop offset="100%" style="stop-color:#cffafe"/>
    </linearGradient>
  </defs>
  <rect width="800" height="450" fill="url(#bg7)"/>
  <!-- Tooth Icon -->
  <g transform="translate(350, 80)">
    <path d="M50 0 C20 0 0 30 0 60 C0 100 20 140 30 180 C35 200 40 200 50 200 C60 200 65 200 70 180 C80 140 100 100 100 60 C100 30 80 0 50 0" fill="white" stroke="#0891b2" stroke-width="4"/>
    <ellipse cx="35" cy="60" rx="15" ry="20" fill="#e0f2fe"/>
    <ellipse cx="65" cy="60" rx="15" ry="20" fill="#e0f2fe"/>
  </g>
  <!-- Website frame -->
  <rect x="200" y="270" width="400" height="140" rx="8" fill="white" stroke="#e5e7eb" stroke-width="2"/>
  <rect x="200" y="270" width="400" height="30" rx="8" fill="#f3f4f6"/>
  <circle cx="220" cy="285" r="5" fill="#ef4444"/>
  <circle cx="238" cy="285" r="5" fill="#fbbf24"/>
  <circle cx="256" cy="285" r="5" fill="#10b981"/>
  <!-- Website Content -->
  <rect x="220" y="315" width="120" height="80" rx="4" fill="#0891b2" opacity="0.2"/>
  <rect x="360" y="315" width="150" height="14" rx="3" fill="#0891b2"/>
  <rect x="360" y="340" width="200" height="10" rx="2" fill="#d1d5db"/>
  <rect x="360" y="358" width="180" height="10" rx="2" fill="#e5e7eb"/>
  <rect x="360" y="380" width="80" height="24" rx="12" fill="#10b981"/>
  <text x="400" y="397" font-family="system-ui" font-size="11" fill="white">Prendre RDV</text>
  <!-- Plus symbol -->
  <circle cx="650" cy="150" r="40" fill="#0891b2" opacity="0.2"/>
  <path d="M650 130 L650 170 M630 150 L670 150" stroke="#0891b2" stroke-width="6" stroke-linecap="round"/>
</svg>