<?xml version="1.0" encoding="UTF-8"?>
<svg xmlns="http://www.w3.org/2000/svg" version="1.1" viewBox="0 0 400 400">
  <!-- Generator: Adobe Illustrator 30.2.1, SVG Export Plug-In . SVG Version: 2.1.1 Build 1)  -->
  <defs>
    <style>
      .st0 {
        fill: #fff;
        stroke: #fff;
        stroke-miterlimit: 55.2;
        stroke-width: 13.8px;
      }
    </style>
  </defs>
  <g id="Layer_1" shape-rendering="crispEdges">
    <path class="st0" d="M27.6,34.5h96.6M151.7,34.5h13.8M179.3,34.5h41.4M275.9,34.5h96.6M27.6,48.3h13.8M110.3,48.3h13.8M151.7,48.3h27.6M206.9,48.3h55.2M275.9,48.3h13.8M358.6,48.3h13.8M27.6,62.1h13.8M55.2,62.1h41.4M110.3,62.1h13.8M137.9,62.1h13.8M220.7,62.1h41.4M275.9,62.1h13.8M303.4,62.1h41.4M358.6,62.1h13.8M27.6,75.9h13.8M55.2,75.9h41.4M110.3,75.9h13.8M137.9,75.9h13.8M165.5,75.9h13.8M193.1,75.9h55.2M275.9,75.9h13.8M303.4,75.9h41.4M358.6,75.9h13.8M27.6,89.7h13.8M55.2,89.7h41.4M110.3,89.7h13.8M137.9,89.7h27.6M193.1,89.7h13.8M248.3,89.7h13.8M275.9,89.7h13.8M303.4,89.7h41.4M358.6,89.7h13.8M27.6,103.4h13.8M110.3,103.4h13.8M137.9,103.4h13.8M193.1,103.4h27.6M234.5,103.4h27.6M275.9,103.4h13.8M358.6,103.4h13.8M27.6,117.2h96.6M137.9,117.2h13.8M165.5,117.2h13.8M193.1,117.2h13.8M220.7,117.2h13.8M248.3,117.2h13.8M275.9,117.2h96.6M137.9,131h13.8M165.5,131h27.6M220.7,131h41.4M27.6,144.8h13.8M55.2,144.8h69M151.7,144.8h27.6M206.9,144.8h27.6M275.9,144.8h69M41.4,158.6h13.8M82.8,158.6h27.6M124.1,158.6h13.8M179.3,158.6h13.8M206.9,158.6h13.8M248.3,158.6h13.8M289.7,158.6h13.8M344.8,158.6h13.8M69,172.4h55.2M193.1,172.4h55.2M289.7,172.4h13.8M317.2,172.4h13.8M344.8,172.4h27.6M69,186.2h27.6M151.7,186.2h27.6M193.1,186.2h13.8M220.7,186.2h13.8M248.3,186.2h69M358.6,186.2h13.8M55.2,200h13.8M82.8,200h13.8M110.3,200h69M193.1,200h41.4M262.1,200h27.6M303.4,200h13.8M331,200h41.4M27.6,213.8h13.8M69,213.8h41.4M124.1,213.8h13.8M193.1,213.8h13.8M289.7,213.8h13.8M317.2,213.8h13.8M344.8,213.8h13.8M27.6,227.6h13.8M55.2,227.6h13.8M96.6,227.6h41.4M193.1,227.6h27.6M234.5,227.6h41.4M289.7,227.6h41.4M344.8,227.6h27.6M27.6,241.4h13.8M55.2,241.4h27.6M124.1,241.4h13.8M151.7,241.4h55.2M220.7,241.4h27.6M289.7,241.4h27.6M358.6,241.4h13.8M27.6,255.2h13.8M82.8,255.2h55.2M206.9,255.2h27.6M248.3,255.2h69M331,255.2h13.8M137.9,269h27.6M179.3,269h13.8M206.9,269h13.8M248.3,269h13.8M303.4,269h27.6M27.6,282.8h96.6M206.9,282.8h27.6M248.3,282.8h13.8M275.9,282.8h13.8M303.4,282.8h13.8M331,282.8h41.4M27.6,296.6h13.8M110.3,296.6h13.8M137.9,296.6h41.4M220.7,296.6h13.8M248.3,296.6h13.8M303.4,296.6h27.6M27.6,310.3h13.8M55.2,310.3h41.4M110.3,310.3h13.8M137.9,310.3h27.6M193.1,310.3h124.1M331,310.3h13.8M27.6,324.1h13.8M55.2,324.1h41.4M110.3,324.1h13.8M137.9,324.1h55.2M220.7,324.1h69M303.4,324.1h69M27.6,337.9h13.8M55.2,337.9h41.4M110.3,337.9h13.8M137.9,337.9h13.8M165.5,337.9h13.8M220.7,337.9h41.4M317.2,337.9h27.6M358.6,337.9h13.8M27.6,351.7h13.8M110.3,351.7h13.8M151.7,351.7h27.6M193.1,351.7h13.8M248.3,351.7h82.8M358.6,351.7h13.8M27.6,365.5h96.6M137.9,365.5h13.8M165.5,365.5h69M275.9,365.5h96.6"/>
  </g>
</svg>