<svg xmlns="http://www.w3.org/2000/svg" viewBox="0 0 800 450" fill="none">
  <defs>
    <linearGradient id="bg8" x1="0%" y1="0%" x2="100%" y2="100%">
      <stop offset="0%" style="stop-color:#fefce8"/>
      <stop offset="100%" style="stop-color:#fef08a"/>
    </linearGradient>
  </defs>
  <rect width="800" height="450" fill="url(#bg8)"/>
  <!-- Google Colors G -->
  <g transform="translate(320, 80)">
    <path d="M80 0 A80 80 0 1 1 80 160 A80 80 0 1 1 80 0" fill="none" stroke="#4285f4" stroke-width="20" stroke-dasharray="126 378"/>
    <path d="M80 0 A80 80 0 1 1 80 160 A80 80 0 1 1 80 0" fill="none" stroke="#ea4335" stroke-width="20" stroke-dasharray="126 378" stroke-dashoffset="-126"/>
    <path d="M80 0 A80 80 0 1 1 80 160 A80 80 0 1 1 80 0" fill="none" stroke="#fbbc05" stroke-width="20" stroke-dasharray="126 378" stroke-dashoffset="-252"/>
    <path d="M80 0 A80 80 0 1 1 80 160 A80 80 0 1 1 80 0" fill="none" stroke="#34a853" stroke-width="20" stroke-dasharray="126 378" stroke-dashoffset="-378"/>
    <rect x="80" y="70" width="80" height="20" fill="#4285f4"/>
  </g>
  <!-- Map Pin -->
  <g transform="translate(550, 120)">
    <path d="M50 0 C22 0 0 22 0 50 C0 85 50 120 50 120 C50 120 100 85 100 50 C100 22 78 0 50 0" fill="#ea4335"/>
    <circle cx="50" cy="45" r="20" fill="white"/>
  </g>
  <!-- Business Card -->
  <rect x="180" y="280" width="440" height="130" rx="12" fill="white" stroke="#e5e7eb" stroke-width="2"/>
  <rect x="200" y="300" width="80" height="80" rx="8" fill="#f3f4f6"/>
  <rect x="300" y="310" width="200" height="18" rx="4" fill="#1f1f23"/>
  <rect x="300" y="338" width="150" height="12" rx="3" fill="#6b7280"/>
  <!-- Stars -->
  <g transform="translate(300, 360)">
    <polygon points="10,0 12,7 20,7 14,12 16,20 10,15 4,20 6,12 0,7 8,7" fill="#fbbf24"/>
    <polygon points="35,0 37,7 45,7 39,12 41,20 35,15 29,20 31,12 25,7 33,7" fill="#fbbf24"/>
    <polygon points="60,0 62,7 70,7 64,12 66,20 60,15 54,20 56,12 50,7 58,7" fill="#fbbf24"/>
    <polygon points="85,0 87,7 95,7 89,12 91,20 85,15 79,20 81,12 75,7 83,7" fill="#fbbf24"/>
    <polygon points="110,0 112,7 120,7 114,12 116,20 110,15 104,20 106,12 100,7 108,7" fill="#fbbf24"/>
  </g>
  <text x="300" y="395" font-family="system-ui" font-size="12" fill="#6b7280">52 avis • Thérapeute à Paris</text>
</svg>