<?xml version="1.0" encoding="UTF-8"?>
<svg id="Layer_2" data-name="Layer 2" xmlns="http://www.w3.org/2000/svg" viewBox="0 0 1006.47 873.9">
  <defs>
    <style>
      .cls-1 {
        fill: #7c3aed;
      }
    </style>
  </defs>
  <g id="Layer_1" data-name="Layer 1">
    <g id="violet">
      <g>
        <polygon class="cls-1" points="503.77 0 651.86 257.55 651.04 261.08 0 869.41 501.53 0 503.77 0"/>
        <path class="cls-1" d="M78.53,873.9l423.71-392.56c.82-.14,11.18,9.12,12.76,10.56,37.41,34.05,75.28,70.72,111.65,106,3.92,3.81,12.42,11.22,15.16,15.14.68.98,1.91,1.58.56,2.87L112.75,873.9h-34.22Z"/>
        <path class="cls-1" d="M755.52,435.99l2.14,1.82c17,31.59,35.79,62.16,53.74,93.18,49.29,85.2,98.66,172.13,148.09,258.04,14.66,25.47,30.95,50.41,44.93,76.23,1.08,2,2.3,3.97,2.01,6.39l-458.82-431.49,135.14-128.36c2.21.01,3.72,3.71,4.81,5.34,24.56,36.97,44.52,80.83,67.96,118.85Z"/>
      </g>
    </g>
  </g>
</svg>