<svg xmlns="http://www.w3.org/2000/svg" viewBox="0 0 800 450" fill="none">
  <defs>
    <linearGradient id="bg5" x1="0%" y1="0%" x2="100%" y2="100%">
      <stop offset="0%" style="stop-color:#eff6ff"/>
      <stop offset="100%" style="stop-color:#dbeafe"/>
    </linearGradient>
  </defs>
  <rect width="800" height="450" fill="url(#bg5)"/>
  <!-- Desktop Monitor -->
  <rect x="200" y="80" width="400" height="250" rx="12" fill="#1f1f23"/>
  <rect x="215" y="95" width="370" height="205" rx="4" fill="white"/>
  <!-- Screen Content - Website -->
  <rect x="230" y="110" width="340" height="40" rx="4" fill="#8b5cf6"/>
  <rect x="240" y="120" width="80" height="20" rx="4" fill="white" opacity="0.3"/>
  <rect x="430" y="125" width="50" height="10" rx="2" fill="white" opacity="0.5"/>
  <rect x="490" y="125" width="50" height="10" rx="2" fill="white" opacity="0.5"/>
  <!-- Content blocks -->
  <rect x="230" y="165" width="150" height="80" rx="6" fill="#f3f4f6"/>
  <rect x="240" y="175" width="100" height="12" rx="2" fill="#8b5cf6"/>
  <rect x="240" y="195" width="130" height="8" rx="2" fill="#d1d5db"/>
  <rect x="240" y="210" width="110" height="8" rx="2" fill="#d1d5db"/>
  <rect x="240" y="225" width="80" height="12" rx="4" fill="#10b981"/>

  <rect x="395" y="165" width="160" height="120" rx="6" fill="#e5e7eb"/>
  <!-- Monitor Stand -->
  <rect x="350" y="330" width="100" height="15" rx="2" fill="#6b7280"/>
  <rect x="320" y="345" width="160" height="10" rx="5" fill="#9ca3af"/>
  <!-- Team icons -->
  <circle cx="150" cy="250" r="40" fill="#8b5cf6" opacity="0.8"/>
  <circle cx="150" cy="235" r="15" fill="white"/>
  <ellipse cx="150" cy="270" rx="20" ry="12" fill="white"/>

  <circle cx="650" cy="250" r="40" fill="#10b981" opacity="0.8"/>
  <circle cx="650" cy="235" r="15" fill="white"/>
  <ellipse cx="650" cy="270" rx="20" ry="12" fill="white"/>
  <!-- Connection Lines -->
  <line x1="190" y1="250" x2="200" y2="220" stroke="#8b5cf6" stroke-width="2" stroke-dasharray="5,5"/>
  <line x1="610" y1="250" x2="600" y2="220" stroke="#10b981" stroke-width="2" stroke-dasharray="5,5"/>
</svg>