<svg xmlns="http://www.w3.org/2000/svg" viewBox="0 0 800 450" fill="none">
  <defs>
    <linearGradient id="bg11" x1="0%" y1="0%" x2="100%" y2="100%">
      <stop offset="0%" style="stop-color:#f0fdf4"/>
      <stop offset="100%" style="stop-color:#bbf7d0"/>
    </linearGradient>
  </defs>
  <rect width="800" height="450" fill="url(#bg11)"/>
  <!-- One Page (Left) -->
  <rect x="100" y="60" width="200" height="330" rx="8" fill="white" stroke="#e5e7eb" stroke-width="2"/>
  <rect x="100" y="60" width="200" height="25" rx="8" fill="#10b981"/>
  <text x="200" y="78" text-anchor="middle" font-family="system-ui" font-size="11" fill="white">One Page</text>
  <rect x="120" y="100" width="160" height="40" rx="4" fill="#10b981" opacity="0.2"/>
  <rect x="120" y="150" width="160" height="30" rx="4" fill="#f3f4f6"/>
  <rect x="120" y="190" width="160" height="30" rx="4" fill="#f3f4f6"/>
  <rect x="120" y="230" width="160" height="30" rx="4" fill="#f3f4f6"/>
  <rect x="120" y="270" width="160" height="30" rx="4" fill="#f3f4f6"/>
  <rect x="120" y="310" width="160" height="30" rx="4" fill="#f3f4f6"/>
  <rect x="120" y="350" width="160" height="25" rx="4" fill="#10b981"/>
  <!-- Scroll indicator -->
  <rect x="290" y="150" width="8" height="200" rx="4" fill="#e5e7eb"/>
  <rect x="290" y="150" width="8" height="60" rx="4" fill="#10b981"/>

  <!-- VS -->
  <text x="400" y="235" text-anchor="middle" font-family="system-ui" font-size="28" font-weight="bold" fill="#6b7280">VS</text>

  <!-- Multi Page (Right) -->
  <g transform="translate(480, 60)">
    <rect x="0" y="0" width="100" height="140" rx="6" fill="white" stroke="#8b5cf6" stroke-width="2"/>
    <rect x="0" y="0" width="100" height="20" rx="6" fill="#8b5cf6"/>
    <text x="50" y="14" text-anchor="middle" font-family="system-ui" font-size="9" fill="white">Accueil</text>
    <rect x="10" y="30" width="80" height="20" rx="3" fill="#8b5cf6" opacity="0.2"/>
    <rect x="10" y="60" width="80" height="12" rx="2" fill="#f3f4f6"/>
    <rect x="10" y="80" width="80" height="12" rx="2" fill="#f3f4f6"/>
    <rect x="10" y="100" width="60" height="20" rx="4" fill="#8b5cf6"/>
  </g>

  <g transform="translate(500, 120)">
    <rect x="0" y="0" width="100" height="140" rx="6" fill="white" stroke="#8b5cf6" stroke-width="2"/>
    <rect x="0" y="0" width="100" height="20" rx="6" fill="#8b5cf6"/>
    <text x="50" y="14" text-anchor="middle" font-family="system-ui" font-size="9" fill="white">Services</text>
    <rect x="10" y="30" width="36" height="40" rx="3" fill="#f3f4f6"/>
    <rect x="54" y="30" width="36" height="40" rx="3" fill="#f3f4f6"/>
    <rect x="10" y="80" width="80" height="10" rx="2" fill="#e5e7eb"/>
    <rect x="10" y="100" width="60" height="10" rx="2" fill="#e5e7eb"/>
  </g>

  <g transform="translate(520, 180)">
    <rect x="0" y="0" width="100" height="140" rx="6" fill="white" stroke="#8b5cf6" stroke-width="2"/>
    <rect x="0" y="0" width="100" height="20" rx="6" fill="#8b5cf6"/>
    <text x="50" y="14" text-anchor="middle" font-family="system-ui" font-size="9" fill="white">Blog</text>
    <rect x="10" y="30" width="80" height="30" rx="3" fill="#f3f4f6"/>
    <rect x="10" y="70" width="80" height="30" rx="3" fill="#f3f4f6"/>
    <rect x="10" y="110" width="80" height="15" rx="3" fill="#e5e7eb"/>
  </g>

  <g transform="translate(540, 240)">
    <rect x="0" y="0" width="100" height="140" rx="6" fill="white" stroke="#8b5cf6" stroke-width="2"/>
    <rect x="0" y="0" width="100" height="20" rx="6" fill="#8b5cf6"/>
    <text x="50" y="14" text-anchor="middle" font-family="system-ui" font-size="9" fill="white">Contact</text>
    <rect x="10" y="35" width="80" height="15" rx="2" fill="#f3f4f6"/>
    <rect x="10" y="60" width="80" height="15" rx="2" fill="#f3f4f6"/>
    <rect x="10" y="85" width="80" height="30" rx="2" fill="#f3f4f6"/>
    <rect x="25" y="125" width="50" height="20" rx="4" fill="#8b5cf6"/>
  </g>

  <!-- Connection lines -->
  <path d="M530 130 L560 130" stroke="#8b5cf6" stroke-width="2" stroke-dasharray="4,2"/>
  <path d="M550 190 L580 190" stroke="#8b5cf6" stroke-width="2" stroke-dasharray="4,2"/>
  <path d="M570 250 L600 250" stroke="#8b5cf6" stroke-width="2" stroke-dasharray="4,2"/>
</svg>