<svg xmlns="http://www.w3.org/2000/svg" viewBox="0 0 800 450" fill="none">
  <defs>
    <linearGradient id="bg12" x1="0%" y1="0%" x2="100%" y2="100%">
      <stop offset="0%" style="stop-color:#eff6ff"/>
      <stop offset="100%" style="stop-color:#bfdbfe"/>
    </linearGradient>
  </defs>
  <rect width="800" height="450" fill="url(#bg12)"/>
  <!-- SEO Text Big -->
  <text x="400" y="150" text-anchor="middle" font-family="system-ui" font-size="100" font-weight="bold" fill="#3b82f6" opacity="0.2">SEO</text>
  <!-- Search Bar -->
  <rect x="200" y="180" width="400" height="60" rx="30" fill="white" stroke="#e5e7eb" stroke-width="2"/>
  <circle cx="250" cy="210" r="18" fill="none" stroke="#6b7280" stroke-width="3"/>
  <line x1="263" y1="223" x2="275" y2="235" stroke="#6b7280" stroke-width="3" stroke-linecap="round"/>
  <rect x="300" y="200" width="200" height="20" rx="4" fill="#e5e7eb"/>
  <rect x="530" y="195" width="50" height="30" rx="15" fill="#3b82f6"/>
  <!-- Rankings -->
  <g transform="translate(200, 270)">
    <rect x="0" y="0" width="400" height="40" rx="8" fill="white" stroke="#10b981" stroke-width="2"/>
    <rect x="10" y="10" width="30" height="20" rx="4" fill="#10b981"/>
    <text x="25" y="25" text-anchor="middle" font-family="system-ui" font-size="12" font-weight="bold" fill="white">1</text>
    <rect x="55" y="15" width="200" height="10" rx="2" fill="#3b82f6"/>
    <rect x="350" y="12" width="40" height="16" rx="4" fill="#10b981" opacity="0.2"/>
  </g>

  <g transform="translate(200, 320)">
    <rect x="0" y="0" width="400" height="40" rx="8" fill="white" stroke="#e5e7eb" stroke-width="2"/>
    <rect x="10" y="10" width="30" height="20" rx="4" fill="#6b7280"/>
    <text x="25" y="25" text-anchor="middle" font-family="system-ui" font-size="12" font-weight="bold" fill="white">2</text>
    <rect x="55" y="15" width="180" height="10" rx="2" fill="#d1d5db"/>
  </g>

  <g transform="translate(200, 370)">
    <rect x="0" y="0" width="400" height="40" rx="8" fill="white" stroke="#e5e7eb" stroke-width="2"/>
    <rect x="10" y="10" width="30" height="20" rx="4" fill="#9ca3af"/>
    <text x="25" y="25" text-anchor="middle" font-family="system-ui" font-size="12" font-weight="bold" fill="white">3</text>
    <rect x="55" y="15" width="160" height="10" rx="2" fill="#e5e7eb"/>
  </g>
  <!-- Graph Arrow Up -->
  <g transform="translate(650, 280)">
    <path d="M0 100 L40 60 L80 70 L120 20" stroke="#10b981" stroke-width="4" fill="none" stroke-linecap="round"/>
    <polygon points="120,20 100,25 105,40" fill="#10b981"/>
  </g>
</svg>