<svg xmlns="http://www.w3.org/2000/svg" viewBox="0 0 800 450" fill="none">
  <defs>
    <linearGradient id="bg9" x1="0%" y1="0%" x2="100%" y2="100%">
      <stop offset="0%" style="stop-color:#fdf4ff"/>
      <stop offset="100%" style="stop-color:#fae8ff"/>
    </linearGradient>
  </defs>
  <rect width="800" height="450" fill="url(#bg9)"/>
  <!-- Brain/Mind Icon -->
  <g transform="translate(320, 60)">
    <ellipse cx="80" cy="80" rx="70" ry="65" fill="#d946ef" opacity="0.2"/>
    <path d="M40 50 Q30 70 40 90 Q30 110 50 120" stroke="#d946ef" stroke-width="4" fill="none" stroke-linecap="round"/>
    <path d="M120 50 Q130 70 120 90 Q130 110 110 120" stroke="#d946ef" stroke-width="4" fill="none" stroke-linecap="round"/>
    <path d="M60 40 Q80 30 100 40" stroke="#d946ef" stroke-width="4" fill="none" stroke-linecap="round"/>
    <path d="M55 80 Q80 70 105 80" stroke="#d946ef" stroke-width="4" fill="none" stroke-linecap="round"/>
    <circle cx="65" cy="60" r="8" fill="#d946ef"/>
    <circle cx="95" cy="60" r="8" fill="#d946ef"/>
    <circle cx="80" cy="100" r="8" fill="#d946ef"/>
  </g>
  <!-- Blog Post Cards -->
  <rect x="120" y="220" width="250" height="100" rx="8" fill="white" stroke="#e5e7eb" stroke-width="2"/>
  <rect x="140" y="240" width="140" height="14" rx="3" fill="#d946ef"/>
  <rect x="140" y="265" width="200" height="10" rx="2" fill="#d1d5db"/>
  <rect x="140" y="285" width="180" height="10" rx="2" fill="#e5e7eb"/>

  <rect x="430" y="220" width="250" height="100" rx="8" fill="white" stroke="#e5e7eb" stroke-width="2"/>
  <rect x="450" y="240" width="160" height="14" rx="3" fill="#d946ef"/>
  <rect x="450" y="265" width="190" height="10" rx="2" fill="#d1d5db"/>
  <rect x="450" y="285" width="170" height="10" rx="2" fill="#e5e7eb"/>

  <rect x="200" y="340" width="400" height="70" rx="8" fill="white" stroke="#d946ef" stroke-width="2"/>
  <rect x="220" y="360" width="180" height="14" rx="3" fill="#d946ef"/>
  <rect x="220" y="385" width="340" height="10" rx="2" fill="#d1d5db"/>
  <!-- Sparkles -->
  <g fill="#fbbf24">
    <polygon points="600,100 603,108 612,108 605,113 608,122 600,116 592,122 595,113 588,108 597,108"/>
    <polygon points="180,180 182,185 188,185 183,189 185,195 180,191 175,195 177,189 172,185 178,185" opacity="0.7"/>
  </g>
</svg>