<svg xmlns="http://www.w3.org/2000/svg" viewBox="0 0 800 450" fill="none">
  <defs>
    <linearGradient id="bg6" x1="0%" y1="0%" x2="100%" y2="100%">
      <stop offset="0%" style="stop-color:#f5f3ff"/>
      <stop offset="100%" style="stop-color:#ede9fe"/>
    </linearGradient>
    <linearGradient id="aigrad" x1="0%" y1="0%" x2="100%" y2="100%">
      <stop offset="0%" style="stop-color:#8b5cf6"/>
      <stop offset="100%" style="stop-color:#6366f1"/>
    </linearGradient>
  </defs>
  <rect width="800" height="450" fill="url(#bg6)"/>
  <!-- AI Brain -->
  <circle cx="400" cy="200" r="100" fill="url(#aigrad)" opacity="0.9"/>
  <!-- Neural Network Lines -->
  <g stroke="#c4b5fd" stroke-width="2">
    <line x1="320" y1="150" x2="280" y2="100"/>
    <line x1="320" y1="200" x2="260" y2="200"/>
    <line x1="320" y1="250" x2="280" y2="300"/>
    <line x1="480" y1="150" x2="520" y2="100"/>
    <line x1="480" y1="200" x2="540" y2="200"/>
    <line x1="480" y1="250" x2="520" y2="300"/>
  </g>
  <!-- Nodes -->
  <circle cx="280" cy="100" r="20" fill="#fbbf24"/>
  <circle cx="260" cy="200" r="20" fill="#10b981"/>
  <circle cx="280" cy="300" r="20" fill="#3b82f6"/>
  <circle cx="520" cy="100" r="20" fill="#f97316"/>
  <circle cx="540" cy="200" r="20" fill="#ec4899"/>
  <circle cx="520" cy="300" r="20" fill="#14b8a6"/>
  <!-- AI Text -->
  <text x="400" y="210" text-anchor="middle" font-family="system-ui" font-size="40" font-weight="bold" fill="white">AI</text>
  <!-- Search bubble -->
  <rect x="200" y="340" width="400" height="60" rx="30" fill="white" stroke="#e5e7eb" stroke-width="2"/>
  <text x="250" y="378" font-family="system-ui" font-size="18" fill="#6b7280">Quel expert peut m'aider ?</text>
  <circle cx="550" cy="370" r="20" fill="#8b5cf6"/>
  <path d="M545 370 L555 370 M550 365 L550 375" stroke="white" stroke-width="3" stroke-linecap="round"/>
</svg>